<svg width="512" height="512" viewBox="0 0 512 512" xmlns="http://www.w3.org/2000/svg">
  <defs>
    <linearGradient id="bg" x1="0" y1="0" x2="512" y2="512" gradientUnits="userSpaceOnUse">
      <stop offset="0%" stop-color="#0f0f1a"/>
      <stop offset="100%" stop-color="#1a1a2e"/>
    </linearGradient>
    <linearGradient id="g1" x1="0" y1="0" x2="512" y2="512" gradientUnits="userSpaceOnUse">
      <stop offset="0%" stop-color="#3b82f6"/>
      <stop offset="100%" stop-color="#8b5cf6"/>
    </linearGradient>
    <linearGradient id="g2" x1="0" y1="512" x2="512" y2="0" gradientUnits="userSpaceOnUse">
      <stop offset="0%" stop-color="#06b6d4"/>
      <stop offset="100%" stop-color="#6366f1"/>
    </linearGradient>
    <linearGradient id="g3" x1="256" y1="100" x2="256" y2="420" gradientUnits="userSpaceOnUse">
      <stop offset="0%" stop-color="#818cf8"/>
      <stop offset="100%" stop-color="#4f46e5"/>
    </linearGradient>
  </defs>

  <!-- Background -->
  <rect width="512" height="512" rx="108" fill="url(#bg)"/>

  <!-- Outer orbit ring -->
  <circle cx="256" cy="256" r="190" fill="none" stroke="url(#g1)" stroke-width="2.5" opacity="0.2"/>

  <!-- Three orbital dots on ring -->
  <circle cx="256" cy="66" r="8" fill="#3b82f6" opacity="0.5"/>
  <circle cx="420" cy="350" r="6" fill="#8b5cf6" opacity="0.4"/>
  <circle cx="92" cy="350" r="7" fill="#06b6d4" opacity="0.45"/>

  <!-- Main shield shape -->
  <path d="M256 108 C256 108 340 108 380 148 C420 188 420 256 420 256 C420 320 380 368 256 420 C132 368 92 320 92 256 C92 256 92 188 132 148 C172 108 256 108 256 108 Z" fill="url(#g3)" opacity="0.12"/>
  <path d="M256 108 C256 108 340 108 380 148 C420 188 420 256 420 256 C420 320 380 368 256 420 C132 368 92 320 92 256 C92 256 92 188 132 148 C172 108 256 108 256 108 Z" fill="none" stroke="url(#g1)" stroke-width="2.5" opacity="0.5"/>

  <!-- Inner diamond -->
  <path d="M256 160 L340 256 L256 352 L172 256 Z" fill="url(#g2)" opacity="0.25"/>
  <path d="M256 160 L340 256 L256 352 L172 256 Z" fill="none" stroke="url(#g2)" stroke-width="2" opacity="0.6"/>

  <!-- Center hexagon -->
  <polygon points="256,196 296,220 296,268 256,292 216,268 216,220" fill="url(#g1)" opacity="0.9"/>
  <polygon points="256,196 296,220 296,268 256,292 216,268 216,220" fill="none" stroke="white" stroke-width="1.5" opacity="0.3"/>

  <!-- Inner triangle -->
  <polygon points="256,216 278,252 234,252" fill="white" opacity="0.9"/>

  <!-- Play triangle notch -->
  <polygon points="246,232 246,258 268,245" fill="url(#g3)"/>

  <!-- Status dot -->
  <circle cx="340" cy="340" r="24" fill="#0f0f1a"/>
  <circle cx="340" cy="340" r="16" fill="#22c55e"/>

  <!-- Decorative corner accents -->
  <path d="M80 140 L80 108 L112 108" fill="none" stroke="url(#g1)" stroke-width="2.5" stroke-linecap="round" opacity="0.3"/>
  <path d="M432 140 L432 108 L400 108" fill="none" stroke="url(#g1)" stroke-width="2.5" stroke-linecap="round" opacity="0.3"/>
  <path d="M80 372 L80 404 L112 404" fill="none" stroke="url(#g2)" stroke-width="2.5" stroke-linecap="round" opacity="0.3"/>
  <path d="M432 372 L432 404 L400 404" fill="none" stroke="url(#g2)" stroke-width="2.5" stroke-linecap="round" opacity="0.3"/>
</svg>
