<svg width="256" height="256" viewBox="0 0 256 256" xmlns="http://www.w3.org/2000/svg">
  <defs>
    <linearGradient id="grad" x1="0%" y1="0%" x2="100%" y2="100%">
      <stop offset="0%" style="stop-color:#3b82f6"/>
      <stop offset="100%" style="stop-color:#8b5cf6"/>
    </linearGradient>
  </defs>
  <rect width="256" height="256" rx="48" fill="url(#grad)"/>
  <path d="M176.6 79.4a115.2 115.2 0 0 0-28.4-8.8c-1.2 2.2-2.6 5-3.5 7.3a107.5 107.5 0 0 0-32 0 74.3 74.3 0 0 0-3.6-7.3 114.7 114.7 0 0 0-28.4 8.8C62.4 107.2 57.4 134.6 59.9 161.6a116 116 0 0 0 34.9 17.6 87 87 0 0 0 7.1-11.6 75.4 75.4 0 0 1-10.9-5.2c.9-.7 1.8-1.4 2.7-2.1a83 83 0 0 0 70.2 0c.9.7 1.8 1.5 2.7 2.1a72 72 0 0 1-10.9 5.2 85.6 85.6 0 0 0 7.1 11.6 115.5 115.5 0 0 0 34.9-17.6c2.9-30.6-4.9-57.2-20.6-79.2zM103 149.2c-6.8 0-12.5-6.3-12.5-14s5.5-14 12.5-14 12.6 6.3 12.5 14-5.5 14-12.5 14zm46.4 0c-6.8 0-12.5-6.3-12.5-14s5.5-14 12.5-14 12.6 6.3 12.5 14-5.5 14-12.5 14z" fill="white"/>
</svg>
